<?xml version="1.0" encoding="UTF-8"?>
<svg id="Capa_1" data-name="Capa 1" xmlns="http://www.w3.org/2000/svg" xmlns:xlink="http://www.w3.org/1999/xlink" viewBox="0 0 287.1 288.32">
  <defs>
    <style>
      .cls-1 {
        fill: url(#Degradado_sin_nombre_1685);
      }

      .cls-2 {
        fill: url(#Degradado_sin_nombre_1846);
      }

      .cls-3 {
        fill: url(#Degradado_sin_nombre_1685-8);
      }

      .cls-4 {
        fill: url(#Degradado_sin_nombre_1685-9);
      }

      .cls-5 {
        fill: url(#Degradado_sin_nombre_1685-3);
      }

      .cls-6 {
        fill: url(#Degradado_sin_nombre_1685-7);
      }

      .cls-7 {
        fill: url(#Degradado_sin_nombre_1685-5);
      }

      .cls-8 {
        fill: url(#Degradado_sin_nombre_1685-4);
      }

      .cls-9 {
        fill: url(#Degradado_sin_nombre_1685-6);
      }

      .cls-10 {
        fill: url(#Degradado_sin_nombre_1685-2);
      }

      .cls-11 {
        fill: #f8f7f7;
      }

      .cls-12 {
        fill: url(#Degradado_sin_nombre_1685-20);
      }

      .cls-13 {
        fill: url(#Degradado_sin_nombre_1685-14);
      }

      .cls-14 {
        fill: url(#Degradado_sin_nombre_1685-18);
      }

      .cls-15 {
        fill: url(#Degradado_sin_nombre_1685-19);
      }

      .cls-16 {
        fill: url(#Degradado_sin_nombre_1685-10);
      }

      .cls-17 {
        fill: url(#Degradado_sin_nombre_1685-15);
      }

      .cls-18 {
        fill: url(#Degradado_sin_nombre_1685-11);
      }

      .cls-19 {
        fill: url(#Degradado_sin_nombre_1685-17);
      }

      .cls-20 {
        fill: url(#Degradado_sin_nombre_1685-16);
      }

      .cls-21 {
        fill: url(#Degradado_sin_nombre_1685-13);
      }

      .cls-22 {
        fill: url(#Degradado_sin_nombre_1685-12);
      }
    </style>
    <linearGradient id="Degradado_sin_nombre_1685" data-name="Degradado sin nombre 1685" x1="269.93" y1="85.39" x2="278.78" y2="85.39" gradientUnits="userSpaceOnUse">
      <stop offset="0" stop-color="#ee7322"/>
      <stop offset=".23" stop-color="#ee7322"/>
      <stop offset="1" stop-color="#f9b044"/>
    </linearGradient>
    <linearGradient id="Degradado_sin_nombre_1685-2" data-name="Degradado sin nombre 1685" x1="264.28" y1="248.65" x2="272.76" y2="248.65" xlink:href="#Degradado_sin_nombre_1685"/>
    <linearGradient id="Degradado_sin_nombre_1685-3" data-name="Degradado sin nombre 1685" x1="252.23" y1="253.83" x2="260.65" y2="253.83" xlink:href="#Degradado_sin_nombre_1685"/>
    <linearGradient id="Degradado_sin_nombre_1685-4" data-name="Degradado sin nombre 1685" x1="246.24" y1="230.65" x2="269.11" y2="230.65" xlink:href="#Degradado_sin_nombre_1685"/>
    <linearGradient id="Degradado_sin_nombre_1685-5" data-name="Degradado sin nombre 1685" x1="236.14" y1="209.04" x2="251.86" y2="209.04" xlink:href="#Degradado_sin_nombre_1685"/>
    <linearGradient id="Degradado_sin_nombre_1685-6" data-name="Degradado sin nombre 1685" x1="228.89" y1="194.28" x2="244.09" y2="194.28" xlink:href="#Degradado_sin_nombre_1685"/>
    <linearGradient id="Degradado_sin_nombre_1685-7" data-name="Degradado sin nombre 1685" x1="224.65" y1="181.45" x2="232.39" y2="181.45" xlink:href="#Degradado_sin_nombre_1685"/>
    <linearGradient id="Degradado_sin_nombre_1685-8" data-name="Degradado sin nombre 1685" x1="202.3" y1="253.88" x2="242.75" y2="253.88" xlink:href="#Degradado_sin_nombre_1685"/>
    <linearGradient id="Degradado_sin_nombre_1685-9" data-name="Degradado sin nombre 1685" x1="83.85" y1="253.99" x2="124.76" y2="253.99" xlink:href="#Degradado_sin_nombre_1685"/>
    <linearGradient id="Degradado_sin_nombre_1685-10" data-name="Degradado sin nombre 1685" x1="87.05" y1="178.46" x2="107.58" y2="178.46" xlink:href="#Degradado_sin_nombre_1685"/>
    <linearGradient id="Degradado_sin_nombre_1685-11" data-name="Degradado sin nombre 1685" x1="55.99" y1="176.52" x2="81.75" y2="176.52" xlink:href="#Degradado_sin_nombre_1685"/>
    <linearGradient id="Degradado_sin_nombre_1685-12" data-name="Degradado sin nombre 1685" x1="38.24" y1="165.37" x2="61.56" y2="165.37" xlink:href="#Degradado_sin_nombre_1685"/>
    <linearGradient id="Degradado_sin_nombre_1685-13" data-name="Degradado sin nombre 1685" x1="8.22" y1="132.45" x2="17.04" y2="132.45" xlink:href="#Degradado_sin_nombre_1685"/>
    <linearGradient id="Degradado_sin_nombre_1685-14" data-name="Degradado sin nombre 1685" x1="18.94" y1="125.28" x2="28.34" y2="125.28" xlink:href="#Degradado_sin_nombre_1685"/>
    <linearGradient id="Degradado_sin_nombre_1685-15" data-name="Degradado sin nombre 1685" x1="29.77" y1="118.01" x2="39.63" y2="118.01" xlink:href="#Degradado_sin_nombre_1685"/>
    <linearGradient id="Degradado_sin_nombre_1685-16" data-name="Degradado sin nombre 1685" x1="41.08" y1="129.4" x2="51.53" y2="129.4" xlink:href="#Degradado_sin_nombre_1685"/>
    <linearGradient id="Degradado_sin_nombre_1685-17" data-name="Degradado sin nombre 1685" x1="17.32" y1="146.69" x2="51.36" y2="146.69" xlink:href="#Degradado_sin_nombre_1685"/>
    <linearGradient id="Degradado_sin_nombre_1685-18" data-name="Degradado sin nombre 1685" x1="68" y1="85.55" x2="76.45" y2="85.55" xlink:href="#Degradado_sin_nombre_1685"/>
    <linearGradient id="Degradado_sin_nombre_1685-19" data-name="Degradado sin nombre 1685" x1="84.92" y1="78.35" x2="261.46" y2="78.35" xlink:href="#Degradado_sin_nombre_1685"/>
    <linearGradient id="Degradado_sin_nombre_1685-20" data-name="Degradado sin nombre 1685" x1="108.63" y1="211.83" x2="222.18" y2="211.83" xlink:href="#Degradado_sin_nombre_1685"/>
    <linearGradient id="Degradado_sin_nombre_1846" data-name="Degradado sin nombre 1846" x1="177.57" y1="72.79" x2="246.64" y2="72.79" gradientUnits="userSpaceOnUse">
      <stop offset="0" stop-color="#5192ce"/>
      <stop offset="1" stop-color="#6fc7da"/>
    </linearGradient>
  </defs>
  <path d="M270.11,215.7c-2.81-3.45-6.39-4.23-10.62-4.91-6.53-19.18-19.38-35.62-36.27-46.88l-1.04-7.22c29.26-.28,51.02,5.97,47.55-31.99,27-6.46,13.92-43.77,15.95-63.22-1.59-7.69-8.4-13.74-16.07-15.13-1.03-15.25,6.27-45.01-18.24-46.35H94.3c-24.1,2.5-16.8,30.42-17.9,46.69-26.41,6.66-13.82,39.48-16.57,58.53.56,9.24,7.18,17.88,16.62,19.15-.96,12.6.05,29.38,16.09,31.97,5.23.58,11.47-.44,16.8,0-.22,1.14-.07,4.56-1.14,5.03-2.02.89-8.93,1.74-11.41,1.99-15.72,1.55-28.81-3.34-39-15.28,2.72-4.69,1.9-9.58-.82-14.02,6.29-3.77.24-10.76-2.65-14.94-2.18-2.74-4.64-3.08-7.91-2.15-3.08-5.18-7.68-16-15.13-11.64C24.17,112.33-.98,120.66.03,130.53c1.1,3.43,6.67,11.41,9.38,14.22.38.84.21,2.71.56,4.01,3.45,6.55,11.04,22.09,21.15,18.14,14.94,24.36,45.75,34.35,72.91,25.62l-4.05,27.76c-9.46.09-22.55-1.58-23.85,11.45-1.44,13.69,1,29.6-.05,43.52.52,6.95,5.14,11.64,12.2,12.13,10.67.73,22.17-.6,32.92-.01,6.68-.64,10.84-5.6,11.7-11.97h61.14c2.64,20.4,30.76,9.92,45.26,12.27,10.38-1.08,12.34-10.01,11.55-18.91,8.45-1.88,18.36-6.02,26.17-9.33,8.83-4.26-.31-14.63-.96-20.43,2.8-5.39-2.95-18.58-5.94-23.3ZM270.11,54.83c4.04,1.73,7.03,4.97,7.93,9.33-2.54,12.63,7.17,47.61-8.11,51.78l.18-61.11ZM76.45,115.94h-.36l-7.43-8.08c-1.69-13.86.47-28.67-.37-42.69.41-4.6,3.6-8.81,8.15-10v60.77ZM49.17,125.1l2.36,3.85-7.64,4.75-2.81-3.89,8.09-4.71ZM34.68,112.79l4.95,7.55-4.46,2.93c-.53.06-.69-.38-.98-.68-.6-.63-4.49-6.39-4.43-6.78.6-.71,4.33-3.43,4.91-3.02ZM23.03,119.95c.25.47,5.88,7.81,5.27,8.24-1.08.16-3.73,2.89-4.56,2.35l-4.79-7.94,4.09-2.65ZM12.95,137.71l-4.73-7.61c-.07-.79,3.83-3.14,4.17-2.9l4.65,7.85-4.09,2.66ZM28.79,159.42c-4.9,1.14-9.38-10.24-11.35-12.82-.18-.77-.23-1.68.45-2.22l16.34-10.49.48.12c4.15,6.19,7.94,10.99,15.2,5.11.68,1.61,1.68,2.82,1.41,4.72-4.29,6.71-15.83,10.93-22.53,15.58ZM50.86,177.01c-4.59-4.06-9.84-8.64-12.62-14,20.14-9.45,7.4-14.71,23.33-.84-1.78,2.7-3.58,5.43-5.43,8.07-1.53,2.2-3.42,4.33-4.47,6.8l-.81-.03ZM81.75,187.95c-8.81-.29-18.44-2.71-25.76-7.55l10.06-15.31c4.28,1.96,10.84,4.64,15.7,5.82v17.04ZM251.86,212.33l-13.05,4.42-2.67-8.44,10.58-6.98c1.71,1.92,4.41,8.16,5.14,11ZM236.15,185.15c.81,0,7.27,9.85,7.94,11.36l-10.58,6.9-4.61-8.62,7.26-9.64ZM231.72,219.43l-.69,1.54-.71-5.62,1.41,4.08ZM232.38,181.15c.17.86-4.7,6.32-5.43,7.5l-2.3-14.4c2.92,1.23,5.44,4.7,7.73,6.9ZM84.92,137.56V17.4c.99-5.29,4.94-9.22,10.55-9.2l155.55-.11c5.89.27,10.37,4.83,10.44,10.71v119.11c-.48,6.15-4.58,10.22-10.79,10.71-45.78-.27-91.75-.4-137.59-.73-10.28-.15-27.7,3.57-28.15-10.33ZM87.42,187.95l-.37-16.51c6.91.11,13.82-.9,20.53-2.46l-2.48,14.58c-5.74,2.1-11.63,3.52-17.68,4.39ZM124.21,275.6c-1.41,7.57-28.91,1.46-36.28,3.34-8.25-2.31-1.05-37.68-3.36-46.56.24-1.72,1.29-3.31,3.09-3.6,50.76.44,33.65-8.65,36.54,46.82ZM194.32,231.07l-.08,35.92h-61.56c-.44-2.58,1.42-40.08-1.84-40.86-4.33-8.03-14.77-5.54-22.21-5.86l9.2-63.59c31.87.06,63.88-.05,95.7.69l8.64,63.25h-17.16c-4.64,0-10.25,5.92-10.7,10.45ZM242.36,275.25c-.21,2.26-1.3,3.96-3.71,4.05-10.25-.75-21.77.93-31.86-.01-2.56-.23-3.96-1.41-4.07-4.04,1.02-13.51-1.3-28.88-.01-42.18.83-8.61,22.96-3.03,29.55-4,2.59.03,7.05-.95,8.91.8,1.75,1.71,1.33,5.44,1.55,7.77-1.06,12,.79,25.87-.36,37.61ZM250.83,242.05c-.34-3.46.45-7.72,0-11.07-.34-4.01-3.44-5.17-4.59-8.25,17.49-5.09,18.41-6.99,22.87,11.38-4.49,4.29-12.59,5.05-18.28,7.94ZM255.44,258.91l-3.21-8.59,4.93-1.56,3.49,7.88-5.21,2.27ZM268.16,253.84l-3.88-8.28,4.77-2.1,3.71,8.77-4.6,1.61Z"/>
  <path class="cls-1" d="M269.93,115.94l.18-61.11c4.04,1.73,7.03,4.97,7.93,9.33-2.54,12.63,7.17,47.61-8.11,51.78Z"/>
  <polygon class="cls-10" points="272.76 252.23 268.16 253.84 264.28 245.56 269.05 243.46 272.76 252.23"/>
  <polygon class="cls-5" points="260.65 256.64 255.44 258.91 252.23 250.32 257.16 248.76 260.65 256.64"/>
  <path class="cls-8" d="M269.11,234.11c-4.49,4.29-12.59,5.05-18.28,7.94-.34-3.46.45-7.72,0-11.07-.34-4.01-3.44-5.17-4.59-8.25,17.49-5.09,18.41-6.99,22.87,11.38Z"/>
  <path class="cls-7" d="M251.86,212.33l-13.05,4.42-2.67-8.44,10.58-6.98c1.71,1.92,4.41,8.16,5.14,11Z"/>
  <path class="cls-9" d="M244.09,196.51l-10.58,6.9-4.61-8.62,7.26-9.64c.81,0,7.27,9.85,7.94,11.36Z"/>
  <path class="cls-6" d="M232.38,181.15c.17.86-4.7,6.32-5.43,7.5l-2.3-14.4c2.92,1.23,5.44,4.7,7.73,6.9Z"/>
  <path class="cls-3" d="M242.36,275.25c-.21,2.26-1.3,3.96-3.71,4.05-10.25-.75-21.77.93-31.86-.01-2.56-.23-3.96-1.41-4.07-4.04,1.02-13.51-1.3-28.88-.01-42.18.83-8.61,22.96-3.03,29.55-4,2.59.03,7.05-.95,8.91.8,1.75,1.71,1.33,5.44,1.55,7.77-1.06,12,.79,25.87-.36,37.61Z"/>
  <path class="cls-4" d="M124.21,275.6c-1.41,7.57-28.91,1.46-36.28,3.34-8.25-2.31-1.05-37.68-3.36-46.56.24-1.72,1.29-3.31,3.09-3.6,50.76.44,33.65-8.65,36.54,46.82Z"/>
  <path class="cls-16" d="M107.58,168.98l-2.48,14.58c-5.74,2.1-11.63,3.52-17.68,4.39l-.37-16.51c6.91.11,13.82-.9,20.53-2.46Z"/>
  <path class="cls-18" d="M81.75,170.91v17.04c-8.81-.29-18.44-2.71-25.76-7.55l10.06-15.31c4.28,1.96,10.84,4.64,15.7,5.82Z"/>
  <path class="cls-22" d="M61.56,162.17c-1.78,2.7-3.58,5.43-5.43,8.07-1.53,2.2-3.42,4.33-4.47,6.8l-.81-.03c-4.59-4.06-9.84-8.64-12.62-14,20.14-9.45,7.4-14.71,23.33-.84Z"/>
  <path class="cls-21" d="M17.04,135.05l-4.09,2.66-4.73-7.61c-.07-.79,3.83-3.14,4.17-2.9l4.65,7.85Z"/>
  <path class="cls-13" d="M28.29,128.19c-1.08.16-3.73,2.89-4.56,2.35l-4.79-7.94,4.09-2.65c.25.47,5.88,7.81,5.27,8.24Z"/>
  <path class="cls-17" d="M39.63,120.34l-4.46,2.93c-.53.06-.69-.38-.98-.68-.6-.63-4.49-6.39-4.43-6.78.6-.71,4.33-3.43,4.91-3.02l4.95,7.55Z"/>
  <polygon class="cls-20" points="51.53 128.95 43.89 133.7 41.08 129.81 49.17 125.1 51.53 128.95"/>
  <path class="cls-19" d="M51.32,143.84c-4.29,6.71-15.83,10.93-22.53,15.58-4.9,1.14-9.38-10.24-11.35-12.82-.18-.77-.23-1.68.45-2.22l16.34-10.49.48.12c4.15,6.19,7.94,10.99,15.2,5.11.68,1.61,1.68,2.82,1.41,4.72Z"/>
  <path class="cls-14" d="M76.45,55.17v60.77h-.36l-7.43-8.08c-1.69-13.86.47-28.67-.37-42.69.41-4.6,3.6-8.81,8.15-10Z"/>
  <path class="cls-15" d="M251.02,8.09l-155.55.11c-5.61-.02-9.57,3.91-10.54,9.2v120.16c.44,13.9,17.86,10.18,28.14,10.33,45.84.33,91.81.46,137.59.73,6.21-.49,10.31-4.56,10.79-10.71V18.8c-.06-5.88-4.54-10.44-10.44-10.71ZM125.89,94.96c-24.45,6.33-30.5-31.61-7.08-34.78,21.92-2.97,27.72,29.43,7.08,34.78ZM181.16,120.69c-7.83,9.43-20.31,11.81-31.02,5.49-3.52-2.07-11.67-8.86-7.55-13.23.41-.44,1.45-1.03,2.03-1.14,4.26-.87,5.5,4.04,8.61,6.38,5.66,4.25,13.59,4.14,19.08-.31,2.83-2.31,3.79-6.56,7.88-5.72,4.6.94,3.22,5.82.98,8.53ZM235.67,107.73c-26.14,17.51-61.75,1.44-65.48-29.56-2.71-22.55,13.49-44.92,36.71-47.14,44.98-4.29,65.15,52.33,28.77,76.7Z"/>
  <path class="cls-12" d="M222.18,220.62h-17.16c-4.64,0-10.25,5.92-10.7,10.45l-.08,35.92h-61.56c-.44-2.58,1.42-40.08-1.84-40.86-4.33-8.03-14.77-5.54-22.21-5.86l9.2-63.59c7.57,0,19,0,33.04.04,2.7,0,10.01.03,14.83.05,10.94.05,26.91.19,47.83.6l8.64,63.25Z"/>
  <path d="M206.9,31.03c-23.22,2.22-39.41,24.59-36.71,47.14,3.72,31,39.34,47.07,65.48,29.56,36.38-24.37,16.21-80.99-28.77-76.7ZM238.45,95.03c-16.54,19.23-47.75,15.19-57.96-8.12-9.59-21.88,5.56-47.04,29.6-48.5,30.07-1.82,47.92,33.87,28.36,56.62Z"/>
  <path class="cls-2" d="M210.09,38.41c-24.04,1.46-39.18,26.62-29.6,48.5,10.2,23.31,41.42,27.35,57.96,8.12,19.56-22.75,1.71-58.44-28.36-56.62ZM232.79,76.07c0,1.61-1.89,6.25-2.77,7.79-8.3,14.52-30.32,13.4-37.21-1.81-7.66-16.92,8.65-35.18,26.19-28.45-6.04,7.66-.21,19.13,9.69,18.04,1.41-.16,2.68-.95,4.1-1.02v5.45Z"/>
  <path d="M125.89,94.96c-24.45,6.33-30.5-31.61-7.08-34.78,21.92-2.97,27.72,29.43,7.08,34.78Z"/>
  <path d="M181.16,120.69c-7.83,9.43-20.31,11.81-31.02,5.49-3.52-2.07-11.67-8.86-7.55-13.23.41-.44,1.45-1.03,2.03-1.14,4.26-.87,5.5,4.04,8.61,6.38,5.66,4.25,13.59,4.14,19.08-.31,2.83-2.31,3.79-6.56,7.88-5.72,4.6.94,3.22,5.82.98,8.53Z"/>
  <path d="M232.79,70.62v5.45c0,1.61-1.89,6.25-2.77,7.79-8.3,14.52-30.32,13.4-37.21-1.81-7.66-16.92,8.65-35.18,26.19-28.45-6.04,7.66-.21,19.13,9.69,18.04,1.41-.16,2.68-.95,4.1-1.02Z"/>
  <ellipse class="cls-11" cx="227.65" cy="60.69" rx="11.11" ry="11.09"/>
</svg>